# xmcd
#
# Track frame offsets: 
#        150
#        17723
#        32511
#        54567
#        69735
#        94267
#        117666
#        132307
#        147656
#        160234
#        180310
#        192016
#        213433
#        226875
#        245476
#        261620
#
# Disc length: 3706 seconds
#
# Revision: 0
# Processed by: cddbd v1.5.2PL0 Copyright (c) Steve Scherf et al.
# Submitted via: ExactAudioCopy v0.95b4
#
DISCID=ed0e7810
DTITLE=Scottie Miller - Livin' Between the Black 'n White
DYEAR=2005
DGENRE=Blues
TTITLE0=I Don't Want To Talk To Nobody
TTITLE1=44 Blues
TTITLE2=Bad Bad Whiskey
TTITLE3=Must Have Been the Devil
TTITLE4=It All Went Down the Drain
TTITLE5=Worried Life Blues
TTITLE6=Good Night Louise
TTITLE7=Keep Your Hands Out Of My Pocket
TTITLE8=Please Don't Talk About Me When I'm Gone
TTITLE9=Jelly Roll Baker
TTITLE10=Reconsider Baby
TTITLE11=Good Morning Mr. Blues
TTITLE12=Love, Love Love
TTITLE13=Please Call Home
TTITLE14=She Quit Me
TTITLE15=Sweet Cream Sugar Delight
EXTD=
EXTT0=
EXTT1=
EXTT2=
EXTT3=
EXTT4=
EXTT5=
EXTT6=
EXTT7=
EXTT8=
EXTT9=
EXTT10=
EXTT11=
EXTT12=
EXTT13=
EXTT14=
EXTT15=
PLAYORDER=
